<svg width="29" height="32" viewBox="0 0 29 32" fill="none" xmlns="http://www.w3.org/2000/svg">
<path d="M20.7404 28.7731V26.5153H26.2547C26.3705 26.5153 26.4767 26.467 26.5732 26.3705C26.6697 26.274 26.7179 26.1679 26.7179 26.0521V11.9261H5.64461V17.8602H3.38681V5.90515C3.38681 5.14482 3.65022 4.50124 4.17705 3.97441C4.70388 3.44758 5.34746 3.18417 6.10779 3.18417H8.19201V0H10.5077V3.18417H21.9127V0H24.1705V3.18417H26.2547C27.0151 3.18417 27.6587 3.44758 28.1855 3.97441C28.7123 4.50124 28.9757 5.14482 28.9757 5.90515V26.0521C28.9757 26.8124 28.7123 27.456 28.1855 27.9828C27.6587 28.5097 27.0151 28.7731 26.2547 28.7731H20.7404ZM10.1603 32.0007L8.58854 30.4289L12.8264 26.1389H0V23.8811H12.8264L8.58854 19.5912L10.1603 18.0194L17.1509 25.01L10.1603 32.0007ZM5.64461 9.6683H26.7179V5.90515C26.7179 5.78935 26.6697 5.68321 26.5732 5.58671C26.4767 5.49022 26.3705 5.44197 26.2547 5.44197H6.10779C5.992 5.44197 5.88585 5.49022 5.78935 5.58671C5.69286 5.68321 5.64461 5.78935 5.64461 5.90515V9.6683ZM5.64461 9.6683V5.90515C5.64461 5.77006 5.64461 5.65908 5.64461 5.57224C5.64461 5.48539 5.64461 5.44197 5.64461 5.44197C5.64461 5.44197 5.64461 5.48539 5.64461 5.57224C5.64461 5.65908 5.64461 5.77006 5.64461 5.90515V9.6683Z" fill="#001712" fill-opacity="0.2"/>
</svg>
